<svg width="80" height="79" viewBox="0 0 80 79" fill="none" xmlns="http://www.w3.org/2000/svg">
<circle cx="40" cy="39.5" r="39.5" fill="#EFEFEF"/>
<path d="M66.2356 38.0817C66.0084 37.6825 65.7039 37.3326 65.34 37.0524C64.976 36.7721 64.5599 36.5672 64.1159 36.4496C62.5052 36.035 60.8406 35.8683 59.1796 35.9553C60.0703 31.5356 59.4023 28.0399 58.721 25.967C58.4494 25.1154 57.8704 24.3956 57.097 23.9477C56.3235 23.4999 55.4109 23.3561 54.5373 23.5445C52.2715 24.0491 50.1172 24.9636 48.1804 26.243C46.762 23.3455 44.6968 20.8126 42.1442 18.8397C41.5256 18.3758 40.7733 18.125 40 18.125C39.2268 18.125 38.4744 18.3758 37.8558 18.8397C35.3027 20.812 33.2374 23.3451 31.8196 26.243C29.8829 24.9636 27.7285 24.0491 25.4628 23.5445C24.5891 23.3561 23.6766 23.4999 22.9031 23.9477C22.1296 24.3956 21.5507 25.1154 21.2791 25.967C20.6111 28.0399 19.9432 31.5334 20.8204 35.9553C19.1594 35.8683 17.4949 36.035 15.8841 36.4496C15.4401 36.5672 15.024 36.7721 14.6601 37.0524C14.2961 37.3326 13.9917 37.6825 13.7644 38.0817C13.5267 38.4906 13.3727 38.9428 13.3115 39.4118C13.2504 39.8809 13.2832 40.3574 13.4082 40.8137C14.163 43.6125 16.4808 48.9362 23.5012 53.131C30.5215 57.3259 36.6891 57.3125 40.0112 57.3125C43.3332 57.3125 49.5119 57.3125 56.4877 53.131C63.5081 48.9362 65.8259 43.6125 66.5807 40.8137C66.7074 40.3582 66.7421 39.882 66.6828 39.413C66.6236 38.9439 66.4715 38.4914 66.2356 38.0817ZM24.6679 27.0624C24.6706 27.0514 24.6774 27.0418 24.6869 27.0355C24.6964 27.0293 24.7079 27.027 24.7191 27.029C26.7909 27.497 28.746 28.381 30.4659 29.6274C29.6828 32.1892 29.2939 34.8552 29.3125 37.5339C29.3125 41.7065 30.1519 45.1043 31.3409 47.8385C29.6506 46.1467 28.1881 44.2418 26.9902 42.1719C22.978 35.1849 23.8129 29.7031 24.6679 27.0624ZM25.3359 50.0739C19.3976 46.5293 17.4717 42.183 16.8438 39.8785C18.4821 39.4751 20.1822 39.3867 21.8535 39.618C22.4115 41.1126 23.093 42.5582 23.8908 43.9398C25.8499 47.3173 28.4165 50.3036 31.4612 52.748C29.3082 52.129 27.2458 51.23 25.327 50.0739H25.3359ZM40 53.3937C37.9226 51.8485 32.875 47.1082 32.875 37.5339C32.875 28.0777 37.8581 23.2995 40 21.6875C42.142 23.304 47.125 28.0822 47.125 37.5384C47.125 47.1082 42.0774 51.8485 40 53.3937ZM49.5342 29.6274C51.2542 28.3818 53.2093 27.4986 55.2809 27.0312C55.2921 27.0292 55.3036 27.0316 55.3132 27.0378C55.3227 27.044 55.3295 27.0536 55.3321 27.0646C56.1871 29.7031 57.0221 35.1849 53.0098 42.1719C51.813 44.2445 50.3504 46.1518 48.6591 47.8452C49.8481 45.1154 50.6875 41.7132 50.6875 37.5406C50.7068 34.8596 50.3179 32.1914 49.5342 29.6274ZM63.1563 39.883C62.5395 42.1652 60.618 46.5204 54.6753 50.0739C52.7563 51.2292 50.694 52.1275 48.5411 52.7458C51.5858 50.3013 54.1524 47.3151 56.1114 43.9375C56.9093 42.556 57.5908 41.1104 58.1487 39.6158C59.8196 39.3856 61.519 39.4755 63.1563 39.8807V39.883Z" fill="#6F6953"/>
</svg>
